HIERARCHY
ROOT Hips
{
	OFFSET 0.000000 0.000000 0.000000
	CHANNELS 6 Xposition Yposition Zposition Xrotation Yrotation Zrotation
	JOINT LeftUpLeg_virtual
	{
		OFFSET 0.000000 0.000000 0.000000
		CHANNELS 3 Xrotation Yrotation Zrotation
		JOINT LeftUpLeg
		{
			OFFSET 11.394100 -6.187798 -0.413800
			CHANNELS 3 Xrotation Yrotation Zrotation
			JOINT LeftLeg
			{
				OFFSET 0.430247 -32.302673 3.732800
				CHANNELS 3 Xrotation Yrotation Zrotation
				JOINT LeftFoot
				{
					OFFSET -0.430247 -48.264931 -6.423300
					CHANNELS 3 Xrotation Yrotation Zrotation
					JOINT LeftToeBase
					{
						OFFSET 4.230900 -16.068199 23.438400
						CHANNELS 3 Xrotation Yrotation Zrotation
						JOINT LeftToe_End
						{
							OFFSET 4.510700 0.695400 19.974600
							CHANNELS 3 Xrotation Yrotation Zrotation
							End Site
							{
								OFFSET 0 0 0
							}
						}
					}
				}
			}
		}
	}
	JOINT RightUpLeg_virtual
	{
		OFFSET 0.000000 0.000000 0.000000
		CHANNELS 3 Xrotation Yrotation Zrotation
		JOINT RightUpLeg
		{
			OFFSET -11.333700 -6.187798 -0.413800
			CHANNELS 3 Xrotation Yrotation Zrotation
			JOINT RightLeg
			{
				OFFSET -0.430392 -32.302628 3.733000
				CHANNELS 3 Xrotation Yrotation Zrotation
				JOINT RightFoot
				{
					OFFSET 0.430392 -48.264973 -6.423500
					CHANNELS 3 Xrotation Yrotation Zrotation
					JOINT RightToeBase
					{
						OFFSET -4.230900 -16.068199 23.438400
						CHANNELS 3 Xrotation Yrotation Zrotation
						JOINT RightToe_End
						{
							OFFSET -4.510700 0.695400 19.974600
							CHANNELS 3 Xrotation Yrotation Zrotation
							End Site
							{
								OFFSET 0 0 0
							}
						}
					}
				}
			}
		}
	}
	JOINT Spine_virtual
	{
		OFFSET 0.000000 0.000000 0.000000
		CHANNELS 3 Xrotation Yrotation Zrotation
		JOINT Spine
		{
			OFFSET -0.002400 12.777504 0.315300
			CHANNELS 3 Xrotation Yrotation Zrotation
			JOINT Spine1
			{
				OFFSET -0.002067 5.816869 0.032633
				CHANNELS 3 Xrotation Yrotation Zrotation
				JOINT Spine1_split
				{
					OFFSET -0.002067 5.816869 0.032633
					CHANNELS 3 Xrotation Yrotation Zrotation
					JOINT Spine2
					{
						OFFSET -0.002067 5.816869 0.032633
						CHANNELS 3 Xrotation Yrotation Zrotation
						JOINT Neck_virtual
						{
							OFFSET 0.000000 0.000000 0.000000
							CHANNELS 3 Xrotation Yrotation Zrotation
							JOINT Neck
							{
								OFFSET -0.003700 21.199493 -0.826900
								CHANNELS 3 Xrotation Yrotation Zrotation
								JOINT Head
								{
									OFFSET 0.000000 20.442200 4.834800
									CHANNELS 3 Xrotation Yrotation Zrotation
									JOINT HeadTop_End
									{
										OFFSET 0.000000 34.668396 4.968400
										CHANNELS 3 Xrotation Yrotation Zrotation
										End Site
										{
											OFFSET 0 0 0
										}
									}
								}
							}
						}
						JOINT LeftShoulder_virtual
						{
							OFFSET 0.000000 0.000000 0.000000
							CHANNELS 3 Xrotation Yrotation Zrotation
							JOINT LeftShoulder
							{
								OFFSET 3.288150 8.794197 -1.372250
								CHANNELS 3 Xrotation Yrotation Zrotation
								JOINT LeftShoulder_split
								{
									OFFSET 3.288150 8.794197 -1.372250
									CHANNELS 3 Xrotation Yrotation Zrotation
									JOINT LeftArm
									{
										OFFSET 11.953299 -2.279007 -0.146200
										CHANNELS 3 Xrotation Yrotation Zrotation
										JOINT LeftForeArm
										{
											OFFSET 18.448900 0.000000 0.000000
											CHANNELS 3 Xrotation Yrotation Zrotation
											JOINT LeftHand
											{
												OFFSET 29.527798 0.000000 0.000000
												CHANNELS 3 Xrotation Yrotation Zrotation
												End Site
												{
													OFFSET 0 0 0
												}
											}
										}
									}
								}
							}
						}
						JOINT RightShoulder_virtual
						{
							OFFSET 0.000000 0.000000 0.000000
							CHANNELS 3 Xrotation Yrotation Zrotation
							JOINT RightShoulder
							{
								OFFSET -3.249400 8.794197 -1.372250
								CHANNELS 3 Xrotation Yrotation Zrotation
								JOINT RightShoulder_split
								{
									OFFSET -3.249400 8.794197 -1.372250
									CHANNELS 3 Xrotation Yrotation Zrotation
									JOINT RightArm
									{
										OFFSET -11.953299 -2.279007 -0.146200
										CHANNELS 3 Xrotation Yrotation Zrotation
										JOINT RightForeArm
										{
											OFFSET -18.448900 0.000000 0.000000
											CHANNELS 3 Xrotation Yrotation Zrotation
											JOINT RightHand
											{
												OFFSET -29.527802 0.000000 0.000000
												CHANNELS 3 Xrotation Yrotation Zrotation
												End Site
												{
													OFFSET 0 0 0
												}
											}
										}
									}
								}
							}
						}
					}
				}
			}
		}
	}
}
MOTION
Frames: 7
Frame Time: 0.03333333
-2.765488 86.754463 0.085968 0.000000 0.000000 0.000000 4.794415 59.581038 -9.205490 -10.915464 10.224195 17.283240 49.393756 -7.150431 12.146182 -20.438282 6.251927 -15.594252 -10.119245 0.165884 -1.996691 0.000000 0.000000 0.000000 7.353292 60.837157 -11.047143 -42.743068 7.566595 -16.823893 28.163436 7.827089 -4.505654 8.080098 9.036793 10.255873 -6.018158 -2.179360 0.738313 0.000000 0.000000 0.000000 5.991127 62.103044 -8.126142 1.254309 -3.946834 -0.983192 2.794192 -0.732342 -0.351876 1.180733 -0.497471 0.177284 0.000000 0.000000 0.000000 1.683152 -1.190859 -0.090384 -6.117800 -10.543363 -1.659724 -2.436229 -40.956546 5.874211 0.000000 0.000000 0.000000 1.467052 -1.076931 -0.411233 0.483711 -8.142986 -8.955469 -3.191776 -0.036194 -2.090110 2.815373 -46.055074 -47.266610 174.367585 -73.238752 173.245713 0.000000 0.000000 0.000000 2.357835 -0.895853 -0.425556 -0.113098 -2.048358 8.723166 -3.169613 6.930849 -0.312878 -22.449165 -7.266902 46.638328 -178.546472 65.347288 178.210441 0.000000 0.000000 0.000000 
-2.783333 90.316978 -0.210262 0.000000 0.000000 0.000000 5.483400 58.153105 -9.953477 -10.883806 8.220560 17.662992 45.974290 -3.922540 10.132704 -16.209203 7.149729 -11.648842 -8.244730 0.345512 -3.711741 0.000000 0.000000 0.000000 8.129155 58.171731 -11.451306 -41.090483 5.705515 -16.562570 23.124509 9.144386 -4.354349 10.409735 11.666493 13.986653 -8.364872 -1.188559 -0.655246 0.000000 0.000000 0.000000 7.355938 59.087686 -9.285138 0.448258 -3.989382 -0.235469 2.513416 -0.753414 -0.276321 1.418780 -0.578542 0.085743 0.000000 0.000000 0.000000 2.003278 -1.100477 -0.105535 -5.810183 -10.383747 -1.336561 -2.080375 -40.905665 5.903741 0.000000 0.000000 0.000000 1.523277 -1.074805 -0.296609 0.480879 -8.473469 -8.128901 -3.772991 -0.898131 -0.799762 -0.580679 -46.437510 -47.491190 175.956601 -71.926373 175.080848 0.000000 0.000000 0.000000 2.419131 -0.841022 -0.310625 -0.023232 -1.917555 8.522304 -3.693815 5.697321 -1.308531 -23.891431 -7.946842 45.737669 -179.141081 64.172510 178.537634 0.000000 0.000000 0.000000 
-2.289101 96.213097 -1.439377 0.000000 0.000000 0.000000 6.068076 55.141934 -10.637010 -11.954520 5.675077 18.358784 40.829587 -1.518796 7.951858 -5.383714 6.172880 -10.838988 -3.718863 0.495336 -8.248124 0.000000 0.000000 0.000000 8.828946 53.252321 -11.762796 -38.389836 3.782014 -15.177725 14.964835 10.281495 -3.694312 12.901608 14.342946 16.151990 -8.349878 -0.268596 -1.505179 0.000000 0.000000 0.000000 8.551862 53.932147 -10.197835 -0.280334 -3.744225 0.933484 2.281810 -0.635918 -0.268770 1.488547 -0.374237 0.096635 0.000000 0.000000 0.000000 2.416747 -0.883244 -0.167934 -5.351227 -9.793841 -0.876018 -1.434880 -39.577439 5.941680 0.000000 0.000000 0.000000 1.758455 -0.915292 -0.218260 0.495584 -8.282996 -6.814919 -3.351148 -1.351830 -0.573797 -5.236242 -46.196012 -47.358001 177.704337 -69.952762 176.890725 0.000000 0.000000 0.000000 2.497985 -0.727425 -0.310799 0.121042 -1.416712 8.145328 -3.635236 4.368436 -1.331931 -26.178882 -7.053244 43.324686 -179.029380 62.924183 178.210823 0.000000 0.000000 0.000000 
-1.365902 102.443802 -3.312550 0.000000 0.000000 0.000000 5.800584 50.112541 -10.723067 -12.940486 4.064132 18.827609 36.292644 0.268819 5.958354 8.152815 3.518679 -11.058040 -5.344920 0.643292 -10.728198 0.000000 0.000000 0.000000 8.436032 47.042897 -11.410904 -35.723290 1.723566 -13.093600 8.296301 10.181235 -2.906114 14.460388 15.084640 15.715512 -6.212524 0.250081 -1.675242 0.000000 0.000000 0.000000 8.736404 47.542341 -10.176898 -0.610298 -3.252763 2.112810 2.132775 -0.388833 -0.301950 1.305147 -0.280255 0.097321 0.000000 0.000000 0.000000 2.816666 -0.566426 -0.248468 -4.833324 -8.886599 -0.383770 -0.634736 -37.038251 5.888564 0.000000 0.000000 0.000000 2.084559 -0.641038 -0.180781 0.483181 -7.637553 -5.363791 -2.522368 -1.237102 -1.103626 -10.163286 -44.997368 -47.177810 179.143636 -68.183204 178.270096 0.000000 0.000000 0.000000 2.599064 -0.535830 -0.410141 0.263728 -0.543719 7.773974 -3.156767 3.714374 -0.833179 -28.421840 -4.619117 40.306852 -178.563930 62.148513 177.679202 0.000000 0.000000 0.000000 
-0.292844 107.475952 -4.724045 0.000000 0.000000 0.000000 4.630537 43.889546 -9.902406 -12.960442 3.978060 18.199452 33.413087 2.068434 4.507661 17.284770 0.957727 -9.356389 -13.290620 1.103457 -9.908602 0.000000 0.000000 0.000000 6.708803 40.030690 -10.280489 -34.055402 -0.536091 -10.962316 6.462640 8.624496 -2.461072 14.610780 12.871772 13.234326 -4.578739 0.298163 -1.438773 0.000000 0.000000 0.000000 7.742084 41.164300 -9.199154 -0.413197 -2.569776 2.911827 2.134169 -0.038025 -0.343904 0.965413 -0.157679 0.038237 0.000000 0.000000 0.000000 3.122386 -0.193381 -0.307593 -4.311644 -7.687421 0.018790 0.172235 -33.584750 5.686258 0.000000 0.000000 0.000000 2.434751 -0.285171 -0.190605 0.413320 -6.667942 -4.123538 -1.878972 -0.563428 -1.679399 -14.434213 -43.037182 -47.057760 -179.961032 -67.146019 179.063135 0.000000 0.000000 0.000000 2.694117 -0.250359 -0.559951 0.420316 0.595161 7.668888 -2.451189 3.778820 -0.565655 -29.956643 -1.188443 37.581808 -178.054207 62.194350 177.280142 0.000000 0.000000 0.000000 
0.831506 110.242554 -5.264275 0.000000 0.000000 0.000000 2.739771 36.835333 -8.195896 -14.045674 5.311281 17.103234 33.888496 4.260495 3.316568 19.481795 -0.159322 -6.408860 -17.395846 1.612814 -9.743857 0.000000 0.000000 0.000000 3.962404 33.607154 -8.485826 -33.493185 -2.512984 -9.439835 10.975276 6.471341 -2.497754 13.273211 8.616084 9.853623 -4.685117 0.016539 -1.233148 0.000000 0.000000 0.000000 5.729114 35.718116 -7.486782 0.226572 -1.777440 3.140624 2.269145 0.391227 -0.370725 0.711292 -0.128440 -0.137119 0.000000 0.000000 0.000000 3.265678 0.170390 -0.333624 -3.876651 -6.288572 0.266530 0.897445 -29.636409 5.345855 0.000000 0.000000 0.000000 2.729793 0.104542 -0.254568 0.318767 -5.651390 -3.399862 -1.744028 0.106822 -2.218277 -16.888635 -40.459192 -47.043088 -179.643005 -66.899340 179.322245 0.000000 0.000000 0.000000 2.800730 0.100845 -0.684017 0.577591 1.841652 8.008402 -1.827625 3.998183 -0.556668 -30.320169 2.385315 35.821296 -177.808047 63.213858 177.298050 0.000000 0.000000 0.000000 
1.753889 111.057587 -5.833412 0.000000 0.000000 0.000000 0.811699 28.926736 -5.916998 -17.781341 6.721590 16.265464 36.993384 5.932165 2.489549 17.553777 -0.532827 -4.614375 -13.329634 1.919053 -10.727497 0.000000 0.000000 0.000000 1.414173 28.617625 -6.304382 -33.432973 -3.812912 -9.072519 19.975409 4.546614 -2.649557 10.856071 4.163068 6.900577 -4.773223 -0.365738 -0.958114 0.000000 0.000000 0.000000 3.300556 30.466595 -5.482861 1.055244 -0.963253 2.738271 2.488412 0.835482 -0.376528 0.781307 -0.015577 -0.136309 0.000000 0.000000 0.000000 3.233127 0.509601 -0.338202 -3.393457 -4.844888 0.321902 1.484005 -25.555383 4.941249 0.000000 0.000000 0.000000 2.969176 0.486566 -0.353623 0.252982 -4.621358 -3.327024 -2.035802 0.617771 -2.487899 -17.441271 -37.649314 -47.433762 -179.730240 -67.424615 179.271702 0.000000 0.000000 0.000000 2.952338 0.512007 -0.769619 0.708757 2.914357 8.842643 -1.462734 4.291932 -0.955824 -29.777221 5.254009 35.287742 -178.008786 65.017684 177.773172 0.000000 0.000000 0.000000 
